<?xml version="1.0" standalone="no"?>
<!DOCTYPE svg PUBLIC "-//W3C//DTD SVG 20010904//EN"
 "http://www.w3.org/TR/2001/REC-SVG-20010904/DTD/svg10.dtd">
<svg version="1.0" xmlns="http://www.w3.org/2000/svg"
 width="256.000000pt" height="256.000000pt" viewBox="0 0 256.000000 256.000000"
 preserveAspectRatio="xMidYMid meet">

<g transform="translate(0.000000,256.000000) scale(0.100000,-0.100000)"
fill="#000000" stroke="none">
<path d="M0 2140 l0 -120 828 0 828 0 113 120 112 120 -940 0 -941 0 0 -120z"/>
<path d="M1975 2008 c-121 -123 -291 -295 -378 -384 l-159 -161 92 -78 93 -79
101 105 c55 57 257 265 449 462 l349 357 -163 0 -164 0 -220 -222z"/>
<path d="M632 1088 l3 -733 118 -3 117 -3 0 736 0 735 -120 0 -120 0 2 -732z"/>
<path d="M2097 1473 l-87 -88 66 -34 c129 -67 212 -180 236 -320 31 -180 -70
-370 -242 -454 -61 -30 -71 -32 -175 -32 -137 1 -198 22 -282 98 -72 66 -105
119 -139 220 l-26 79 -94 -93 c-52 -52 -94 -99 -94 -105 0 -34 78 -161 141
-228 129 -138 272 -205 455 -214 274 -13 517 130 634 373 121 250 77 538 -112
740 -52 56 -167 145 -187 145 -3 0 -46 -39 -94 -87z"/>
</g>
</svg>
